<?xml version="1.0" encoding="utf-8"?>
<!-- Generator: Adobe Illustrator 27.2.0, SVG Export Plug-In . SVG Version: 6.00 Build 0)  -->
<svg version="1.1" id="Layer_1" xmlns="http://www.w3.org/2000/svg" xmlns:xlink="http://www.w3.org/1999/xlink" x="0px" y="0px"
	 viewBox="0 0 2511.3 832.4" style="enable-background:new 0 0 2511.3 832.4;" xml:space="preserve">
<style type="text/css">
	.st0{fill:#4285F4;}
	.st1{fill:#FBBC06;}
	.st2{fill:#EA4336;}
	.st3{fill:#34A853;}
	.st4{fill:#8CE1CE;}
</style>
<path class="st0" d="M1944.8,435.6c0,62,0.4,124-0.1,185.9c-0.3,39.1-6.6,77.2-24.5,112.5c-26,51.4-68.4,81.1-124.1,93
	c-24.6,5.3-49.5,6.8-74.3,3.7c-49.4-6.2-91.2-27.8-124.5-65.2c-14-15.8-25.4-33.3-34.2-52.6c-1.5-3.3-0.8-4.5,2.4-5.8
	c23.9-9.8,47.7-19.6,71.4-29.7c3.7-1.6,4.9-0.6,6.5,2.7c15.3,31.5,37.9,55.5,72.4,65c36.7,10.1,71.8,5.4,102.8-18.1
	c19.7-15,29.8-36.3,35.2-59.9c5.1-22.1,4.1-44.6,4.1-67c0-0.9,0.4-2.1-0.9-2.6c-1.7-0.6-2.8,0.6-3.8,1.7c-6.3,7.2-13.2,13.6-21.1,19
	c-30.3,20.8-64.2,29.9-100.4,25.8c-88.5-9.9-146.8-59.4-176.3-142c-27.6-77.5-1.9-168.8,59.9-223.2c26.3-23.1,56-39.4,90.2-46.9
	c17.3-3.8,34.7-5.5,52.5-3.9c31.8,2.9,60.5,13.4,85,34.4c3.3,2.8,6.2,6,9.3,9c1.3,1.3,2.2,3.4,4.4,2.5c2.2-0.9,1.1-3.2,1.1-4.8
	c0.1-8.3,0.2-16.7,0-25c-0.1-3,0.7-4,3.9-4c26.5,0.1,53,0.2,79.5,0c4.5,0,3.7,2.5,3.7,5.1C1944.8,308.6,1944.8,372.1,1944.8,435.6
	C1944.8,435.6,1944.8,435.6,1944.8,435.6z M1864.2,437.1c0.2-15.3-2-30.2-6.4-44.8c-13.9-46.1-54.8-85.4-110.5-82.2
	c-30.5,1.7-56.4,13.6-76.4,36.3c-35.1,39.7-42.5,86-26.7,135.6c14.6,45.8,56.6,80,106.7,80.6c29.5,0.4,54.9-9.5,75.8-30.1
	C1853.3,506.3,1863.8,473.6,1864.2,437.1z"/>
<path class="st1" d="M1093.2,435.9c0.1-119.4,92.4-208.9,210-208.3c120.7,0.7,200.2,90.2,207.7,188.3c5,65.4-13.2,122.8-60.2,169.4
	c-41,40.6-91.5,59.8-149,59.6C1184.9,644.4,1092.8,554.2,1093.2,435.9z M1420.3,436.4c-0.1-9.1-0.8-18-2.4-26.9
	c-11.5-63.1-64.5-101.4-117.3-99.5c-32.8,1.2-60.4,13-82.3,37c-27.3,29.9-36.7,65.7-32.5,105.5c1.7,15.7,6,30.6,13,44.8
	c31.6,63.6,110.1,85.2,167.6,45.6C1403.6,517.3,1419.3,480.4,1420.3,436.4z"/>
<path class="st2" d="M641.6,436.3c-0.7-118.4,91.4-209,209.1-208.8c121.1,0.3,200.1,90.1,208.3,186.3
	c5.6,65.7-12.3,123.5-59.4,170.7c-38.6,38.8-86.3,58.6-140.5,60.2C732.1,648.7,640.7,551.5,641.6,436.3z M850.2,562.6
	c12.8,0.2,25.3-1.6,37.2-6c42.3-15.9,67.8-46.2,77.7-90.3c4.9-21.7,5.1-43.3-0.7-64.5c-13.2-48.3-42.8-80.2-93.6-89.9
	c-14.3-2.7-28.6-2.7-42.7,0.1c-45.9,9.2-85.1,45.2-93.9,104.7c-2.8,18.8-1.5,37.9,3.7,56.6C752,524.6,796.2,562.3,850.2,562.6z"/>
<path class="st2" d="M2339.8,645c-58.8,0.5-110.1-17.7-152.2-59.1c-31.9-31.4-50.4-69.8-57.9-113.7c-2.7-15.4-3.7-31-2.9-46.5
	c3.7-73.4,39.8-149.5,123-183.8c29.2-12.1,59.8-16.5,91.4-13.5c57.7,5.5,101.1,34.5,134.2,80.9c15.8,22.2,25.7,47.2,35.5,72.4
	c1.3,3.3-1.1,3.2-2.7,3.9c-29.5,12.2-59,24.5-88.5,36.7c-61,25.3-121.9,50.6-183,75.7c-3.7,1.5-3.4,2.8-1.8,5.7
	c22.3,40.7,56.6,60.4,103,59.1c41-1.1,71.8-20.4,95.2-52.9c3-4.2,4.8-4.1,8.8-1.4c20.5,14,41.2,27.7,61.9,41.3
	c3.6,2.3,3.6,3.8,1.1,7.1c-35.8,48.4-82.7,78.2-142.8,86.6C2354.7,644.2,2347.1,644,2339.8,645z M2217.8,422.5c0-0.7,0-0.2,0,0.3
	c-0.1,7-0.1,7,6.3,4.4c31.9-13.3,63.9-26.5,95.8-39.8c26.7-11.1,53.4-22.3,80.2-33.2c3.5-1.4,4.4-2.8,2.4-6.1
	c-2.3-3.9-4.4-7.9-7.4-11.2c-22.7-25.2-52-32.9-83.8-27.1C2256.2,320,2219,365.8,2217.8,422.5z"/>
<path class="st3" d="M1998.9,326.1c0-100,0-200-0.1-299.9c0-4.9,1.3-6,6-6c25.8,0.3,51.7,0.3,77.5,0c5-0.1,6.3,1.1,6.3,6.2
	c-0.2,149.6-0.1,299.3-0.1,448.9c0,50.5-0.1,101,0.1,151.5c0,4.6-1.3,5.4-5.6,5.4c-26.2-0.2-52.3-0.2-78.5,0c-4.5,0-5.8-1-5.8-5.7
	C1998.9,526.4,1998.9,426.3,1998.9,326.1z"/>
<path class="st3" d="M449.6,465.8c25.3,27.5,53.3,52.3,77.9,80.4c4.2,4.8,9.8,8.3,14.2,12.9c17.1,17.8,33.4,36.4,51.1,53.6
	c11.8,11.5,23.6,23,34.5,35.3c0.8,0.9,2.2,1.6,1.8,3.4c-2.1,1.6-4.6,0.8-6.9,0.8c-75.3,0.1-150.5,0.1-225.8,0.2
	c-4.9,0-8.4-1.3-11.9-5c-15.5-16.1-32.1-31.1-47.2-47.6c-30.1-32.9-62.9-63.2-93.4-95.8c-24.5-26.2-50.6-50.9-77.1-77.4
	c0,4.2,0,7.1,0,9.9c0,69.1-0.1,138.1,0.2,207.2c0,6.8-1.8,8.5-8.5,8.4c-49.8-0.3-99.6-0.3-149.4,0c-6.4,0-8.8-1.2-8.8-8.3
	C0.6,495.3,0.5,347,0.6,198.6c0-1.9,0.3-3.8,0.5-5.6c10.2,2.8,20.7,1.4,31,3.2c34.8,6,66.7,18.5,95.4,39.3
	c6.2,4.5,11.6,10.3,18.8,13.5c6,6.2,11.9,12.4,18,18.5c19.1,19.2,37.7,38.8,57.4,57.3c10,9.5,19.1,20.2,31,27.7
	c12.3,15.5,26.7,28.9,41,42.5c1.4,2.8,3,5.6,4.3,8.5c9.4,20.5,21,39.1,39.8,52.7c19.5,14,40.8,22.8,64.8,22.8
	C419.2,478.9,434.7,473.1,449.6,465.8z"/>
<path class="st1" d="M252.7,352.4c-11.9-7.4-20.9-18.2-31-27.7c-19.7-18.5-38.4-38.1-57.4-57.3c-6.1-6.1-12-12.3-18-18.5
	c7-7.7,13.9-15.5,20.9-23.2c10-9.7,19.2-20.5,29.4-29.8c17.5-16,32.1-34.8,50.4-50.1c8.5-7.1,15-16.9,23.5-24.3
	c15.9-13.9,30.2-29.6,45-44.6c23.7-24,47.9-47.5,71.2-71.9c2.2-2.3,4.3-4.2,8.1-4.2c67.9,0.1,135.8,0.1,203.7,0.1
	c1.1,0,2.1,0.4,3.2,0.6c-0.4,0.4-0.6,0.9-0.7,1.4c-12,8.9-20.4,21.3-30.9,31.7c-48.5,47.9-96.6,96.3-144.8,144.7
	c-17.4,17.5-33.8,35.9-51.7,52.9c-39.9,37.9-78.2,77.4-117.4,116C255,349.4,253.9,351,252.7,352.4z"/>
<path class="st2" d="M449.6,465.8c-14.8,7.3-30.3,13-46.9,13c-24.1,0-45.3-8.8-64.8-22.8c-18.9-13.5-30.5-32.1-39.8-52.7
	c-1.3-2.9-2.9-5.7-4.3-8.5c3.2-2.4,0.1-5.1-0.2-7.3c-5.4-33.4,5.8-61.9,26.8-86.7c20.1-23.7,45.6-37.6,77.8-38.2
	c18.1-0.3,35.5,2.7,51,10.9c15.6,8.2,29.5,19.3,39.7,34.4c8.1,12.1,14.5,24.8,17.8,39c6.9,29.9,0.2,56.8-16.1,82.4
	C480,445.8,464.4,455.2,449.6,465.8z"/>
<path class="st0" d="M167.2,225.6c-7,7.7-13.9,15.5-20.9,23.2c-7.2-3.1-12.6-8.9-18.9-13.5c-28.7-20.8-60.6-33.3-95.4-39.3
	c-10.3-1.8-20.9-0.4-31-3.2c-0.2-20-0.4-40-0.4-60.1C0.4,91.2,0.4,49.5,0,7.8C-0.1,1.9,1.5,0,7.7,0c50.4,0.3,100.7,0.3,151.1,0
	c7,0,8.3,2.3,8.3,8.7c-0.2,69.6-0.1,139.2-0.1,208.8C167,220.2,167.1,222.9,167.2,225.6z"/>
<path class="st4" d="M601,2.8c0.1-0.5,0.3-1,0.7-1.4c0,0.4,0.1,0.9,0,1.3C601.7,2.8,601.3,2.8,601,2.8z"/>
</svg>
