<?xml version="1.0" encoding="utf-8"?>
<!-- Generator: Adobe Illustrator 27.2.0, SVG Export Plug-In . SVG Version: 6.00 Build 0)  -->
<svg version="1.1" id="Layer_1" xmlns="http://www.w3.org/2000/svg" xmlns:xlink="http://www.w3.org/1999/xlink" x="0px" y="0px"
	 viewBox="0 0 629.3 652.4" style="enable-background:new 0 0 629.3 652.4;" xml:space="preserve">
<style type="text/css">
	.st0{fill:#34A853;}
	.st1{fill:#FBBC06;}
	.st2{fill:#EA4336;}
	.st3{fill:#4285F4;}
	.st4{fill:#8CE1CE;}
</style>
<path class="st0" d="M449.6,465.8c25.3,27.5,53.3,52.3,77.9,80.4c4.2,4.8,9.8,8.3,14.2,12.9c17.1,17.8,33.4,36.4,51.1,53.6
	c11.8,11.5,23.6,23,34.5,35.3c0.8,0.9,2.2,1.6,1.8,3.4c-2.1,1.6-4.6,0.8-6.9,0.8c-75.3,0.1-150.5,0.1-225.8,0.2
	c-4.9,0-8.4-1.3-11.9-5c-15.5-16.1-32.1-31.1-47.2-47.6c-30.1-32.9-62.9-63.2-93.4-95.8c-24.5-26.2-50.6-50.9-77.1-77.4
	c0,4.2,0,7.1,0,9.9c0,69.1-0.1,138.1,0.2,207.2c0,6.8-1.8,8.5-8.5,8.4c-49.8-0.3-99.6-0.3-149.4,0c-6.4,0-8.8-1.2-8.8-8.3
	C0.6,495.3,0.5,347,0.6,198.6c0-1.9,0.3-3.8,0.5-5.6c10.2,2.8,20.7,1.4,31,3.2c34.8,6,66.7,18.5,95.4,39.3
	c6.2,4.5,11.6,10.3,18.8,13.5c6,6.2,11.9,12.4,18,18.5c19.1,19.2,37.7,38.8,57.4,57.3c10,9.5,19.1,20.2,31,27.7
	c12.3,15.5,26.7,28.9,41,42.5c1.4,2.8,3,5.6,4.3,8.5c9.4,20.5,21,39.1,39.8,52.7c19.5,14,40.8,22.8,64.8,22.8
	C419.2,478.9,434.7,473.1,449.6,465.8z"/>
<path class="st1" d="M252.7,352.4c-11.9-7.4-20.9-18.2-31-27.7c-19.7-18.5-38.4-38.1-57.4-57.3c-6.1-6.1-12-12.3-18-18.5
	c7-7.7,13.9-15.5,20.9-23.2c10-9.7,19.2-20.5,29.4-29.8c17.5-16,32.1-34.8,50.4-50.1c8.5-7.1,15-16.9,23.5-24.3
	c15.9-13.9,30.2-29.6,45-44.6c23.7-24,47.9-47.5,71.2-71.9c2.2-2.3,4.3-4.2,8.1-4.2c67.9,0.1,135.8,0.1,203.7,0.1
	c1.1,0,2.1,0.4,3.2,0.6c-0.4,0.4-0.6,0.9-0.7,1.4c-12,8.9-20.4,21.3-30.9,31.7c-48.5,47.9-96.6,96.3-144.8,144.7
	c-17.4,17.5-33.8,35.9-51.7,52.9c-39.9,37.9-78.2,77.4-117.4,116C255,349.4,253.9,351,252.7,352.4z"/>
<path class="st2" d="M449.6,465.8c-14.8,7.3-30.3,13-46.9,13c-24.1,0-45.3-8.8-64.8-22.8c-18.9-13.5-30.5-32.1-39.8-52.7
	c-1.3-2.9-2.9-5.7-4.3-8.5c3.2-2.4,0.1-5.1-0.2-7.3c-5.4-33.4,5.8-61.9,26.8-86.7c20.1-23.7,45.6-37.6,77.8-38.2
	c18.1-0.3,35.5,2.7,51,10.9c15.6,8.2,29.5,19.3,39.7,34.4c8.1,12.1,14.5,24.8,17.8,39c6.9,29.9,0.2,56.8-16.1,82.4
	C480,445.8,464.4,455.2,449.6,465.8z"/>
<path class="st3" d="M167.2,225.6c-7,7.7-13.9,15.5-20.9,23.2c-7.2-3.1-12.6-8.9-18.9-13.5c-28.7-20.8-60.6-33.3-95.4-39.3
	c-10.3-1.8-20.9-0.4-31-3.2c-0.2-20-0.4-40-0.4-60.1C0.4,91.2,0.4,49.5,0,7.8C-0.1,1.9,1.5,0,7.7,0c50.4,0.3,100.7,0.3,151.1,0
	c7,0,8.3,2.3,8.3,8.7c-0.2,69.6-0.1,139.2-0.1,208.8C167,220.2,167.1,222.9,167.2,225.6z"/>
<path class="st4" d="M601,2.8c0.1-0.5,0.3-1,0.7-1.4c0,0.4,0.1,0.9,0,1.3C601.7,2.8,601.3,2.8,601,2.8z"/>
</svg>
